<?xml version="1.0" encoding="UTF-8" standalone="no"?>
<!DOCTYPE svg PUBLIC "-//W3C//DTD SVG 1.1//EN" "http://www.w3.org/Graphics/SVG/1.1/DTD/svg11.dtd">
<!-- Generated by graphviz version 2.40.1 (20161225.0304)
 -->
<!-- Title: TD Pages: 1 -->
<svg xmlns="http://www.w3.org/2000/svg" xmlns:xlink="http://www.w3.org/1999/xlink" width="599pt" height="631pt" viewBox="0.00 0.00 598.50 630.90">
  <g id="graph0" class="graph" transform="scale(1 1) rotate(0) translate(4 626.9)">
    <title>TD</title>
    <g id="a_graph0">
      <a xlink:title="Click the boxes for further information">
        <polygon fill="#ffffff" stroke="transparent" points="-4,4 -4,-626.9 594.5,-626.9 594.5,4 -4,4"/>
      </a>
    </g>
    <!-- 3&#45;&gt;4 -->
    <!-- 3&#45;&gt;5 -->
    <!-- 4&#45;&gt;5 -->
    <g id="edge3" class="edge">
      <title>4-&gt;5</title>
      <path fill="none" stroke="#000000" d="M302.821,-504C311.202,-504 319.6641,-504 328.0915,-504"/>
      <polygon fill="#000000" stroke="#000000" points="328.346,-507.5001 338.346,-504 328.3459,-500.5001 328.346,-507.5001"/>
    </g>
    <!-- 4&#45;&gt;6 -->
    <g id="edge4" class="edge">
      <title>4-&gt;6</title>
      <path fill="none" stroke="#000000" d="M176.5,-449.97C176.5,-429.0858 176.5,-406.0468 176.5,-388.5112"/>
      <polygon fill="#000000" stroke="#000000" points="180.0001,-388.3725 176.5,-378.3725 173.0001,-388.3726 180.0001,-388.3725"/>
    </g>
    <!-- 5&#45;&gt;7 -->
    <!-- 6&#45;&gt;7 -->
    <g id="edge5" class="edge">
      <title>6-&gt;7</title>
      <path fill="none" stroke="#000000" d="M302.821,-360C311.202,-360 319.6641,-360 328.0915,-360"/>
      <polygon fill="#000000" stroke="#000000" points="328.346,-363.5001 338.346,-360 328.3459,-356.5001 328.346,-363.5001"/>
    </g>
    <!-- 6&#45;&gt;8 -->
    <g id="edge6" class="edge">
      <title>6-&gt;8</title>
      <path fill="none" stroke="#000000" d="M176.5,-341.4582C176.5,-333.9583 176.5,-325.1245 176.5,-316.8217"/>
      <polygon fill="#000000" stroke="#000000" points="180.0001,-316.7292 176.5,-306.7292 173.0001,-316.7292 180.0001,-316.7292"/>
    </g>
    <!-- 7&#45;&gt;9 -->
    <!-- 8&#45;&gt;9 -->
    <g id="edge7" class="edge">
      <title>8-&gt;9</title>
      <path fill="none" stroke="#000000" d="M302.821,-288C311.202,-288 319.6641,-288 328.0915,-288"/>
      <polygon fill="#000000" stroke="#000000" points="328.346,-291.5001 338.346,-288 328.3459,-284.5001 328.346,-291.5001"/>
    </g>
    <!-- 8&#45;&gt;10 -->
    <g id="edge8" class="edge">
      <title>8-&gt;10</title>
      <path fill="none" stroke="#000000" d="M176.5,-269.3519C176.5,-256.9612 176.5,-240.4547 176.5,-226.4391"/>
      <polygon fill="#000000" stroke="#000000" points="180.0001,-226.3162 176.5,-216.3162 173.0001,-226.3163 180.0001,-226.3162"/>
    </g>
    <!-- 9&#45;&gt;11 -->
    <!-- 10&#45;&gt;12 -->
    <g id="edge10" class="edge">
      <title>10-&gt;12</title>
      <path fill="none" stroke="#000000" d="M176.5,-179.4693C176.5,-159.5319 176.5,-127.0631 176.5,-100.1504"/>
      <polygon fill="#000000" stroke="#000000" points="180.0001,-100.1456 176.5,-90.1456 173.0001,-100.1456 180.0001,-100.1456"/>
    </g>
    <!-- 10&#45;&gt;C -->
    <g id="edge9" class="edge">
      <title>10-&gt;C</title>
      <path fill="none" stroke="#000000" d="M302.821,-198C311.202,-198 319.6641,-198 328.0915,-198"/>
      <polygon fill="#000000" stroke="#000000" points="328.346,-201.5001 338.346,-198 328.3459,-194.5001 328.346,-201.5001"/>
    </g>
    <!-- identification -->
    <g id="node1" class="node">
      <title>identification</title>
      <g id="a_node1">
        <a xlink:title="Blue identification box">
          <path fill="#bcd2ee" stroke="#bcd2ee" d="M19.3333,-558C19.3333,-558 9.6667,-558 9.6667,-558 4.8333,-558 0,-553.1667 0,-548.3333 0,-548.3333 0,-459.6667 0,-459.6667 0,-454.8333 4.8333,-450 9.6667,-450 9.6667,-450 19.3333,-450 19.3333,-450 24.1667,-450 29,-454.8333 29,-459.6667 29,-459.6667 29,-548.3333 29,-548.3333 29,-553.1667 24.1667,-558 19.3333,-558"/>
          <text text-anchor="middle" x="500.4" y="16.5" font-family="Helvetica,sans-Serif" font-size="12.00" fill="#000000" transform="rotate(-90)">Identification</text>
        </a>
      </g>
    </g>
    <!-- screening -->
    <g id="node2" class="node">
      <title>screening</title>
      <g id="a_node2">
        <a xlink:title="Blue screening box">
          <path fill="#bcd2ee" stroke="#bcd2ee" d="M19.3333,-378C19.3333,-378 9.6667,-378 9.6667,-378 4.8333,-378 0,-373.1667 0,-368.3333 0,-368.3333 0,-171.6667 0,-171.6667 0,-166.8333 4.8333,-162 9.6667,-162 9.6667,-162 19.3333,-162 19.3333,-162 24.1667,-162 29,-166.8333 29,-171.6667 29,-171.6667 29,-368.3333 29,-368.3333 29,-373.1667 24.1667,-378 19.3333,-378"/>
          <text text-anchor="middle" x="266.4" y="16.5" font-family="Helvetica,sans-Serif" font-size="12.00" fill="#000000" transform="rotate(-90)">Screening</text>
        </a>
      </g>
    </g>
    <!-- included -->
    <g id="node3" class="node">
      <title>included</title>
      <g id="a_node3">
        <a xlink:title="Blue included box">
          <path fill="#bcd2ee" stroke="#bcd2ee" d="M19.3333,-108C19.3333,-108 9.6667,-108 9.6667,-108 4.8333,-108 0,-103.1667 0,-98.3333 0,-98.3333 0,-9.6667 0,-9.6667 0,-4.8333 4.8333,0 9.6667,0 9.6667,0 19.3333,0 19.3333,0 24.1667,0 29,-4.8333 29,-9.6667 29,-9.6667 29,-98.3333 29,-98.3333 29,-103.1667 24.1667,-108 19.3333,-108"/>
          <text text-anchor="middle" x="50.4" y="16.5" font-family="Helvetica,sans-Serif" font-size="12.00" fill="#000000" transform="rotate(-90)">Included</text>
        </a>
      </g>
    </g>
    <!-- 3 -->
    <g id="node4" class="node">
      <title>3</title>
      <g id="a_node4">
        <a xlink:title="Yellow title box; Identification of new studies via databases and registers">
          <path fill="#ffc125" stroke="#ffc125" d="M580.8333,-622.9C580.8333,-622.9 60.1667,-622.9 60.1667,-622.9 55.3333,-622.9 50.5,-618.0667 50.5,-613.2333 50.5,-613.2333 50.5,-603.5667 50.5,-603.5667 50.5,-598.7333 55.3333,-593.9 60.1667,-593.9 60.1667,-593.9 580.8333,-593.9 580.8333,-593.9 585.6667,-593.9 590.5,-598.7333 590.5,-603.5667 590.5,-603.5667 590.5,-613.2333 590.5,-613.2333 590.5,-618.0667 585.6667,-622.9 580.8333,-622.9"/>
          <text text-anchor="middle" x="320.5" y="-604.8" font-family="Helvetica,sans-Serif" font-size="12.00" fill="#000000">Identification of new studies via databases and registers</text>
        </a>
      </g>
    </g>
    <!-- 4 -->
    <g id="node5" class="node">
      <title>4</title>
      <g id="a_node5">
        <a xlink:title="Records identified from: Databases and Registers">
          <polygon fill="none" stroke="#000000" points="302.5,-558 50.5,-558 50.5,-450 302.5,-450 302.5,-558"/>
          <text text-anchor="middle" x="176.5" y="-536.4" font-family="Helvetica,sans-Serif" font-size="12.00" fill="#000000">Records identified from:</text>
          <text text-anchor="middle" x="176.5" y="-522" font-family="Helvetica,sans-Serif" font-size="12.00" fill="#000000">Databases (n = 3):</text>
          <text text-anchor="middle" x="176.5" y="-507.6" font-family="Helvetica,sans-Serif" font-size="12.00" fill="#000000">Scopus (n = 105)</text>
          <text text-anchor="middle" x="176.5" y="-493.2" font-family="Helvetica,sans-Serif" font-size="12.00" fill="#000000">Web of Science (n = 45)</text>
          <text text-anchor="middle" x="176.5" y="-478.8" font-family="Helvetica,sans-Serif" font-size="12.00" fill="#000000">IEEE Xplore (n = 90)</text>
          <text text-anchor="middle" x="176.5" y="-464.4" font-family="Helvetica,sans-Serif" font-size="12.00" fill="#000000">Registers (n = 0)</text>
        </a>
      </g>
    </g>
    <!-- 5 -->
    <g id="node6" class="node">
      <title>5</title>
      <g id="a_node6">
        <a xlink:title="Duplicate records">
          <polygon fill="none" stroke="#000000" points="590.5,-544 338.5,-544 338.5,-464 590.5,-464 590.5,-544"/>
          <text text-anchor="middle" x="464.5" y="-529.2" font-family="Helvetica,sans-Serif" font-size="12.00" fill="#000000">Records removed before screening:</text>
          <text text-anchor="middle" x="464.5" y="-514.8" font-family="Helvetica,sans-Serif" font-size="12.00" fill="#000000">Duplicate records (n = 62)</text>
          <text text-anchor="middle" x="464.5" y="-500.4" font-family="Helvetica,sans-Serif" font-size="12.00" fill="#000000">Records marked as ineligible by automation</text>
          <text text-anchor="middle" x="464.5" y="-486" font-family="Helvetica,sans-Serif" font-size="12.00" fill="#000000">tools (n = 0)</text>
          <text text-anchor="middle" x="464.5" y="-471.6" font-family="Helvetica,sans-Serif" font-size="12.00" fill="#000000">Records removed for other reasons (n = 0)</text>
        </a>
      </g>
    </g>
    <!-- 6 -->
    <g id="node7" class="node">
      <title>6</title>
      <g id="a_node7">
        <a xlink:title="Records screened (databases and registers)">
          <polygon fill="none" stroke="#000000" points="302.5,-378.3005 50.5,-378.3005 50.5,-341.6995 302.5,-341.6995 302.5,-378.3005"/>
          <text text-anchor="middle" x="176.5" y="-363.6" font-family="Helvetica,sans-Serif" font-size="12.00" fill="#000000">Records screened</text>
          <text text-anchor="middle" x="176.5" y="-349.2" font-family="Helvetica,sans-Serif" font-size="12.00" fill="#000000">(n = 178)</text>
        </a>
      </g>
    </g>
    <!-- 7 -->
    <g id="node8" class="node">
      <title>7</title>
      <g id="a_node8">
        <a xlink:title="Records excluded (databases and registers)">
          <polygon fill="none" stroke="#000000" points="590.5,-378.3005 338.5,-378.3005 338.5,-341.6995 590.5,-341.6995 590.5,-378.3005"/>
          <text text-anchor="middle" x="464.5" y="-363.6" font-family="Helvetica,sans-Serif" font-size="12.00" fill="#000000">Records excluded</text>
          <text text-anchor="middle" x="464.5" y="-349.2" font-family="Helvetica,sans-Serif" font-size="12.00" fill="#000000">(n = 129)</text>
        </a>
      </g>
    </g>
    <!-- 8 -->
    <g id="node9" class="node">
      <title>8</title>
      <g id="a_node9">
        <a xlink:title="Reports sought for retrieval (databases and registers)">
          <polygon fill="none" stroke="#000000" points="302.5,-306.3005 50.5,-306.3005 50.5,-269.6995 302.5,-269.6995 302.5,-306.3005"/>
          <text text-anchor="middle" x="176.5" y="-291.6" font-family="Helvetica,sans-Serif" font-size="12.00" fill="#000000">Reports sought for retrieval</text>
          <text text-anchor="middle" x="176.5" y="-277.2" font-family="Helvetica,sans-Serif" font-size="12.00" fill="#000000">(n = 49)</text>
        </a>
      </g>
    </g>
    <!-- 9 -->
    <g id="node10" class="node">
      <title>9</title>
      <g id="a_node10">
        <a xlink:title="Reports not retrieved (databases and registers)">
          <polygon fill="none" stroke="#000000" points="590.5,-306.3005 338.5,-306.3005 338.5,-269.6995 590.5,-269.6995 590.5,-306.3005"/>
          <text text-anchor="middle" x="464.5" y="-291.6" font-family="Helvetica,sans-Serif" font-size="12.00" fill="#000000">Reports not retrieved</text>
          <text text-anchor="middle" x="464.5" y="-277.2" font-family="Helvetica,sans-Serif" font-size="12.00" fill="#000000">(n = 23)</text>
        </a>
      </g>
    </g>
    <!-- 10 -->
    <g id="node11" class="node">
      <title>10</title>
      <g id="a_node11">
        <a xlink:title="Reports assessed for eligibility (databases and registers)">
          <polygon fill="none" stroke="#000000" points="302.5,-216.3005 50.5,-216.3005 50.5,-179.6995 302.5,-179.6995 302.5,-216.3005"/>
          <text text-anchor="middle" x="176.5" y="-201.6" font-family="Helvetica,sans-Serif" font-size="12.00" fill="#000000">Reports assessed for eligibility</text>
          <text text-anchor="middle" x="176.5" y="-187.2" font-family="Helvetica,sans-Serif" font-size="12.00" fill="#000000">(n = 26)</text>
        </a>
      </g>
    </g>
    <!-- 11 -->
    <g id="node12" class="node">
      <title>11</title>
      <g id="a_node12">
        <a xlink:title="Reports excluded (databases and registers)">
          <polygon fill="#ffffff" stroke="#000000" points="590.5,-230.6012 338.5,-230.6012 338.5,-165.3988 590.5,-165.3988 590.5,-230.6012"/>
          <text text-anchor="middle" x="464.5" y="-216" font-family="Helvetica,sans-Serif" font-size="12.00" fill="#000000">Reports excluded:</text>
          <text text-anchor="middle" x="464.5" y="-201.6" font-family="Helvetica,sans-Serif" font-size="12.00" fill="#000000">D2-NoModelStructure (n = 4)</text>
          <text text-anchor="middle" x="464.5" y="-187.2" font-family="Helvetica,sans-Serif" font-size="12.00" fill="#000000">Transversal-NoEmpiricalValidation (n = 2)</text>
          <text text-anchor="middle" x="464.5" y="-172.8" font-family="Helvetica,sans-Serif" font-size="12.00" fill="#000000">D3-NoPlatformImplementation (n = 1)</text>
        </a>
      </g>
    </g>
    <!-- 12 -->
    <g id="node13" class="node">
      <title>12</title>
      <g id="a_node13">
        <a xlink:title="New studies included in review">
          <polygon fill="none" stroke="#000000" points="302.5,-90 50.5,-90 50.5,-18 302.5,-18 302.5,-90"/>
          <text text-anchor="middle" x="176.5" y="-72" font-family="Helvetica,sans-Serif" font-size="12.00" fill="#000000">New studies included in review</text>
          <text text-anchor="middle" x="176.5" y="-57.6" font-family="Helvetica,sans-Serif" font-size="12.00" fill="#000000">(n = 19)</text>
          <text text-anchor="middle" x="176.5" y="-43.2" font-family="Helvetica,sans-Serif" font-size="12.00" fill="#000000">Reports of new included studies</text>
          <text text-anchor="middle" x="176.5" y="-28.8" font-family="Helvetica,sans-Serif" font-size="12.00" fill="#000000">(n = 19)</text>
        </a>
      </g>
    </g>
    <!-- C -->
  </g>
</svg>
